<svg width="24" height="24" xmlns="http://www.w3.org/2000/svg">

 <g>
  <title>background</title>
  <rect fill="none" id="canvas_background" height="402" width="582" y="-1" x="-1"/>
 </g>
 <g>
  <title>Layer 1</title>
  <path id="svg_1" fill="none" d="m0,0l24,0l0,24l-24,0l0,-24z"/>
  <path fill="#306856" id="svg_2" d="m13,9l-2,0l0,2l2,0l0,-2zm4,0l-2,0l0,2l2,0l0,-2zm3,6.5c-1.25,0 -2.45,-0.2 -3.57,-0.57c-0.35,-0.11 -0.74,-0.03 -1.02,0.24l-2.2,2.2c-2.83,-1.44 -5.15,-3.75 -6.59,-6.58l2.2,-2.21c0.28,-0.27 0.36,-0.66 0.25,-1.01c-0.37,-1.12 -0.57,-2.32 -0.57,-3.57c0,-0.55 -0.45,-1 -1,-1l-3.5,0c-0.55,0 -1,0.45 -1,1c0,9.39 7.61,17 17,17c0.55,0 1,-0.45 1,-1l0,-3.5c0,-0.55 -0.45,-1 -1,-1zm-1,-6.5l0,2l2,0l0,-2l-2,0z"/>
 </g>
</svg>