<svg width="24" height="24" xmlns="http://www.w3.org/2000/svg">

 <g>
  <title>background</title>
  <rect fill="none" id="canvas_background" height="402" width="582" y="-1" x="-1"/>
 </g>
 <g>
  <title>Layer 1</title>
  <path fill="#46673D" id="svg_1" d="m20,4l-16,0c-1.1,0 -1.99,0.9 -1.99,2l-0.01,12c0,1.1 0.9,2 2,2l16,0c1.1,0 2,-0.9 2,-2l0,-12c0,-1.1 -0.9,-2 -2,-2zm0,4l-8,5l-8,-5l0,-2l8,5l8,-5l0,2z"/>
  <path stroke="null" id="svg_2" fill="none" d="m0.059773,0.059773l23.880455,0l0,23.820681l-23.880455,0l0,-23.820681z"/>
  <rect stroke="null" id="svg_3" height="1.793185" width="2.032277" y="21.294677" x="13.105798" stroke-opacity="null" stroke-width="null" fill="#46673D"/>
  <rect stroke="null" id="svg_5" height="1.793185" width="2.032277" y="21.294677" x="16.333531" stroke-opacity="null" stroke-width="null" fill="#46673D"/>
  <rect stroke="null" id="svg_6" height="1.793185" width="2.032277" y="21.294677" x="19.561264" stroke-opacity="null" stroke-width="null" fill="#46673D"/>
 </g>
</svg>