<svg width="24.000000000000004" height="24.000000000000004" xmlns="http://www.w3.org/2000/svg">

 <g>
  <title>background</title>
  <rect fill="none" id="canvas_background" height="402" width="582" y="-1" x="-1"/>
 </g>
 <g>
  <title>Layer 1</title>
  <path fill="#396849" id="svg_1" d="m20,2l-16,0c-1.1,0 -1.99,0.9 -1.99,2l-0.01,18l4,-4l14,0c1.1,0 2,-0.9 2,-2l0,-12c0,-1.1 -0.9,-2 -2,-2zm-2,12l-12,0l0,-2l12,0l0,2zm0,-3l-12,0l0,-2l12,0l0,2zm0,-3l-12,0l0,-2l12,0l0,2z"/>
  <path id="svg_2" fill="none" d="m24,0l0,24l-24,0l24,-24z"/>
  <rect stroke="null" id="svg_6" height="2.191988" width="2.494331" y="20.352229" x="10.752835" stroke-opacity="null" stroke-width="null" fill="#396849"/>
  <rect stroke="null" id="svg_10" height="2.191988" width="2.494331" y="20.352229" x="18.689342" stroke-opacity="null" stroke-width="null" fill="#396849"/>
  <rect stroke="null" id="svg_11" height="2.191988" width="2.494331" y="20.352229" x="14.758881" stroke-opacity="null" stroke-width="null" fill="#396849"/>
 </g>
</svg>