<svg width="24" height="24" xmlns="http://www.w3.org/2000/svg">

 <g>
  <title>background</title>
  <rect fill="none" id="canvas_background" height="402" width="582" y="-1" x="-1"/>
 </g>
 <g>
  <title>Layer 1</title>
  <path id="svg_1" fill="none" d="m0,0l24,0l0,24l-24,0l0,-24z"/>
  <circle fill="#894F3F" id="svg_2" r="1.5" cy="9.5" cx="15.5"/>
  <circle fill="#894F3F" id="svg_3" r="1.5" cy="9.5" cx="8.5"/>
  <path fill="#894F3F" id="svg_4" d="m11.99,2c-5.52,0 -9.99,4.48 -9.99,10s4.47,10 9.99,10c5.53,0 10.01,-4.48 10.01,-10s-4.48,-10 -10.01,-10zm0.01,18c-4.42,0 -8,-3.58 -8,-8s3.58,-8 8,-8s8,3.58 8,8s-3.58,8 -8,8zm0,-6c-2.33,0 -4.32,1.45 -5.12,3.5l1.67,0c0.69,-1.19 1.97,-2 3.45,-2s2.75,0.81 3.45,2l1.67,0c-0.8,-2.05 -2.79,-3.5 -5.12,-3.5z"/>
 </g>
</svg>