<svg width="24" height="24" xmlns="http://www.w3.org/2000/svg">

 <g>
  <title>background</title>
  <rect fill="none" id="canvas_background" height="26" width="26" y="-1" x="-1"/>
 </g>
 <g>
  <title>Layer 1</title>
  <path id="svg_1" fill="none" d="m0,0l24,0l0,24l-24,0l0,-24z"/>
  <path fill="#2D6862" id="svg_2" d="m11.99,2c-5.52,0 -9.99,4.48 -9.99,10s4.47,10 9.99,10c5.53,0 10.01,-4.48 10.01,-10s-4.48,-10 -10.01,-10zm0.01,18c-4.42,0 -8,-3.58 -8,-8s3.58,-8 8,-8s8,3.58 8,8s-3.58,8 -8,8zm3.5,-9c0.83,0 1.5,-0.67 1.5,-1.5s-0.67,-1.5 -1.5,-1.5s-1.5,0.67 -1.5,1.5s0.67,1.5 1.5,1.5zm-7,0c0.83,0 1.5,-0.67 1.5,-1.5s-0.67,-1.5 -1.5,-1.5s-1.5,0.67 -1.5,1.5s0.67,1.5 1.5,1.5zm3.5,6.5c2.33,0 4.31,-1.46 5.11,-3.5l-10.22,0c0.8,2.04 2.78,3.5 5.11,3.5z"/>
 </g>
</svg>